/* XPM */
static char * EA_xpm[] = {
"32 32 1005 2",
"  	c #CB190A",
". 	c #F04002",
"+ 	c #EB2704",
"@ 	c #B20F11",
"# 	c #5B1E33",
"$ 	c #631F32",
"% 	c #AB1514",
"& 	c #332037",
"* 	c #950C14",
"= 	c #7A111E",
"- 	c #A01217",
"; 	c #FFD602",
"> 	c #8E0D0D",
", 	c #7F0B0D",
"' 	c #740A11",
") 	c #6C0D19",
"! 	c #990E14",
"~ 	c #B60F11",
"{ 	c #8C0F15",
"] 	c #941019",
"^ 	c #98111D",
"/ 	c #231A25",
"( 	c #2E2D40",
"_ 	c #34344C",
": 	c #36354B",
"< 	c #801422",
"[ 	c #D01D0D",
"} 	c #261927",
"| 	c #261A25",
"1 	c #281F2D",
"2 	c #333148",
"3 	c #C51B10",
"4 	c #2D1828",
"5 	c #2C293D",
"6 	c #33354B",
"7 	c #FB5800",
"8 	c #2B273E",
"9 	c #78182A",
"0 	c #6B182A",
"a 	c #691418",
"b 	c #2D2C43",
"c 	c #37354B",
"d 	c #8F0F1D",
"e 	c #8D1420",
"f 	c #B51412",
"g 	c #A10F12",
"h 	c #9A0C15",
"i 	c #7D0C1E",
"j 	c #81101B",
"k 	c #711528",
"l 	c #82101F",
"m 	c #A51015",
"n 	c #5E1313",
"o 	c #3B111B",
"p 	c #2E1B27",
"q 	c #312C3F",
"r 	c #363347",
"s 	c #A2151D",
"t 	c #440D1E",
"u 	c #271923",
"v 	c #251821",
"w 	c #251B28",
"x 	c #2F2236",
"y 	c #442E3B",
"z 	c #281924",
"A 	c #2D2739",
"B 	c #353347",
"C 	c #EC6313",
"D 	c #BB110E",
"E 	c #B11010",
"F 	c #2B2839",
"G 	c #D11F16",
"H 	c #671020",
"I 	c #5B182B",
"J 	c #A40F16",
"K 	c #5D161E",
"L 	c #2F1E31",
"M 	c #312F48",
"N 	c #BC1213",
"O 	c #9F0F14",
"P 	c #2C2535",
"Q 	c #37344A",
"R 	c #411520",
"S 	c #381D2D",
"T 	c #C77318",
"U 	c #6D0913",
"V 	c #590B17",
"W 	c #401929",
"X 	c #39283B",
"Y 	c #6F1924",
"Z 	c #34131D",
"` 	c #2C151E",
" .	c #29161F",
"..	c #2E1726",
"+.	c #3C1C2A",
"@.	c #C92414",
"#.	c #291823",
"$.	c #2F2739",
"%.	c #352F44",
"&.	c #3D3445",
"*.	c #8B0F1B",
"=.	c #9A0F12",
"-.	c #2D2636",
";.	c #36344B",
">.	c #37364E",
",.	c #3A344C",
"'.	c #E22419",
").	c #272437",
"!.	c #9B1E1A",
"~.	c #551023",
"{.	c #462131",
"].	c #530E16",
"^.	c #3A1926",
"/.	c #3A2435",
"(.	c #AD0F0F",
"_.	c #780B14",
":.	c #E11A0D",
"<.	c #A4110D",
"[.	c #880A11",
"}.	c #800B10",
"|.	c #780E17",
"1.	c #BB1613",
"2.	c #700812",
"3.	c #580813",
"4.	c #550A14",
"5.	c #530813",
"6.	c #770C13",
"7.	c #32131C",
"8.	c #43111D",
"9.	c #371D2E",
"0.	c #492D3B",
"a.	c #D7240B",
"b.	c #650E11",
"c.	c #361C28",
"d.	c #332E42",
"e.	c #363147",
"f.	c #472F41",
"g.	c #FDAC06",
"h.	c #481421",
"i.	c #372338",
"j.	c #2D233A",
"k.	c #2B314F",
"l.	c #3C162C",
"m.	c #A5110F",
"n.	c #A30F11",
"o.	c #7D101F",
"p.	c #7C111E",
"q.	c #6D1727",
"r.	c #C2231E",
"s.	c #2C2230",
"t.	c #6E293C",
"u.	c #B11011",
"v.	c #980E16",
"w.	c #890C17",
"x.	c #A50C12",
"y.	c #B4100F",
"z.	c #B7110F",
"A.	c #CC170C",
"B.	c #550B15",
"C.	c #B30F0F",
"D.	c #940C13",
"E.	c #A31315",
"F.	c #F34F03",
"G.	c #2B1E2F",
"H.	c #2E2C45",
"I.	c #880F0F",
"J.	c #5F1222",
"K.	c #631524",
"L.	c #F63003",
"M.	c #252A46",
"N.	c #9A2F3E",
"O.	c #F02A04",
"P.	c #4D1222",
"Q.	c #452236",
"R.	c #A41113",
"S.	c #711625",
"T.	c #8C1A25",
"U.	c #421522",
"V.	c #2D2232",
"W.	c #30344F",
"X.	c #EB270A",
"Y.	c #B3110F",
"Z.	c #8A101C",
"`.	c #B61014",
" +	c #A71012",
".+	c #2D2F49",
"++	c #2D334F",
"@+	c #940A16",
"#+	c #800D1D",
"$+	c #7E0A19",
"%+	c #9D0B11",
"&+	c #850A17",
"*+	c #820F1E",
"=+	c #94121C",
"-+	c #2F151E",
";+	c #291924",
">+	c #33293C",
",+	c #95242A",
"'+	c #2F283E",
")+	c #333346",
"!+	c #470F1A",
"~+	c #311825",
"{+	c #2E2637",
"]+	c #343046",
"^+	c #821F2C",
"/+	c #271A26",
"(+	c #292537",
"_+	c #323249",
":+	c #35354B",
"<+	c #96293B",
"[+	c #6D0D16",
"}+	c #571625",
"|+	c #CD150E",
"1+	c #293055",
"2+	c #9D1516",
"3+	c #AE1615",
"4+	c #5A0C15",
"5+	c #2F1A27",
"6+	c #322D40",
"7+	c #34364C",
"8+	c #4B1E2C",
"9+	c #2C3049",
"0+	c #AA100F",
"a+	c #363449",
"b+	c #952633",
"c+	c #FF7C0D",
"d+	c #4D0E19",
"e+	c #31171F",
"f+	c #332738",
"g+	c #DA2D17",
"h+	c #6F101E",
"i+	c #741019",
"j+	c #BF100C",
"k+	c #830A14",
"l+	c #700A17",
"m+	c #981111",
"n+	c #C41F1B",
"o+	c #2D2C48",
"p+	c #4E101A",
"q+	c #341F2F",
"r+	c #332D43",
"s+	c #383049",
"t+	c #67243B",
"u+	c #FFB304",
"v+	c #67101C",
"w+	c #651123",
"x+	c #2A2839",
"y+	c #36334C",
"z+	c #2F3452",
"A+	c #670A17",
"B+	c #4D1324",
"C+	c #402137",
"D+	c #78222E",
"E+	c #3D1B2B",
"F+	c #362E42",
"G+	c #731322",
"H+	c #86161F",
"I+	c #FB5908",
"J+	c #DD2F01",
"K+	c #5D0D18",
"L+	c #621422",
"M+	c #FFD302",
"N+	c #AF1715",
"O+	c #421C2D",
"P+	c #3B253A",
"Q+	c #671021",
"R+	c #7F0F1A",
"S+	c #7F0C11",
"T+	c #521221",
"U+	c #491E2E",
"V+	c #820A10",
"W+	c #780911",
"X+	c #710E17",
"Y+	c #57273C",
"Z+	c #32344F",
"`+	c #34364E",
" @	c #32354D",
".@	c #2E3147",
"+@	c #2F2F43",
"@@	c #333146",
"#@	c #38344A",
"$@	c #271D30",
"%@	c #832A46",
"&@	c #CC130E",
"*@	c #7D1427",
"=@	c #911A28",
"-@	c #9A0F11",
";@	c #36364D",
">@	c #393549",
",@	c #722135",
"'@	c #FF9606",
")@	c #FF6C07",
"!@	c #FF660D",
"~@	c #F53C0E",
"{@	c #841223",
"]@	c #7E1323",
"^@	c #980F16",
"/@	c #950C16",
"(@	c #D51C11",
"_@	c #E72404",
":@	c #35263C",
"<@	c #8F0E1B",
"[@	c #7B111E",
"}@	c #801221",
"|@	c #D73507",
"1@	c #3C141E",
"2@	c #2C2331",
"3@	c #313145",
"4@	c #33344A",
"5@	c #343247",
"6@	c #403042",
"7@	c #580F1E",
"8@	c #382032",
"9@	c #DD290C",
"0@	c #342E49",
"a@	c #35364D",
"b@	c #37374E",
"c@	c #35364E",
"d@	c #39344C",
"e@	c #462E45",
"f@	c #BE1D17",
"g@	c #8B1624",
"h@	c #811227",
"i@	c #8C1422",
"j@	c #7D1525",
"k@	c #891321",
"l@	c #67192D",
"m@	c #6A1626",
"n@	c #851224",
"o@	c #9B101F",
"p@	c #8E121F",
"q@	c #472C3D",
"r@	c #3B1520",
"s@	c #2B2036",
"t@	c #862531",
"u@	c #840D0F",
"v@	c #500F1A",
"w@	c #321D2B",
"x@	c #2F2A3D",
"y@	c #323248",
"z@	c #35354A",
"A@	c #383347",
"B@	c #682330",
"C@	c #E32802",
"D@	c #282D4C",
"E@	c #CA6221",
"F@	c #301D2A",
"G@	c #303145",
"H@	c #33364D",
"I@	c #392F44",
"J@	c #732431",
"K@	c #313959",
"L@	c #92313B",
"M@	c #CE2217",
"N@	c #CC1B10",
"O@	c #31344C",
"P@	c #682F44",
"Q@	c #FC3E0A",
"R@	c #8E1020",
"S@	c #341620",
"T@	c #2A2635",
"U@	c #E42211",
"V@	c #6A0D1A",
"W@	c #E22705",
"X@	c #B4150D",
"Y@	c #2E344E",
"Z@	c #C8180A",
"`@	c #A6100C",
" #	c #740A12",
".#	c #451423",
"+#	c #32293B",
"@#	c #373347",
"##	c #3F3346",
"$#	c #CC2B17",
"%#	c #6E0F15",
"&#	c #4B1728",
"*#	c #4B2331",
"=#	c #7B0E0E",
"-#	c #3E1A2B",
";#	c #31293D",
">#	c #2D263E",
",#	c #34344B",
"'#	c #36374F",
")#	c #35374E",
"!#	c #B92F28",
"~#	c #A1140E",
"{#	c #3C2336",
"]#	c #353246",
"^#	c #3D3141",
"/#	c #A31116",
"(#	c #F62406",
"_#	c #47141C",
":#	c #312B40",
"<#	c #B01210",
"[#	c #A20F16",
"}#	c #BB1210",
"|#	c #5D0D16",
"1#	c #451B2B",
"2#	c #D8180C",
"3#	c #C9150D",
"4#	c #C0140C",
"5#	c #8E0D0F",
"6#	c #5C121D",
"7#	c #402637",
"8#	c #592937",
"9#	c #FFD203",
"0#	c #261E29",
"a#	c #312F40",
"b#	c #7B151C",
"c#	c #F83907",
"d#	c #EB2A01",
"e#	c #FE6907",
"f#	c #2A1825",
"g#	c #2D2838",
"h#	c #333349",
"i#	c #35364F",
"j#	c #39384F",
"k#	c #891424",
"l#	c #432E43",
"m#	c #B6100F",
"n#	c #9E0E14",
"o#	c #2D2A3F",
"p#	c #33354D",
"q#	c #D2190A",
"r#	c #740E18",
"s#	c #681825",
"t#	c #4B1725",
"u#	c #3C2335",
"v#	c #F12F02",
"w#	c #D61E09",
"x#	c #AC2330",
"y#	c #B01212",
"z#	c #AD1515",
"A#	c #D2170C",
"B#	c #BA1011",
"C#	c #9A0D15",
"D#	c #D6190D",
"E#	c #9A1016",
"F#	c #860D18",
"G#	c #88111A",
"H#	c #C01712",
"I#	c #2C2945",
"J#	c #34344D",
"K#	c #BC6304",
"L#	c #410F18",
"M#	c #361824",
"N#	c #302A3C",
"O#	c #363349",
"P#	c #3C354B",
"Q#	c #8E1622",
"R#	c #671B2F",
"S#	c #4F253A",
"T#	c #591111",
"U#	c #2A1E2C",
"V#	c #322F43",
"W#	c #36344A",
"X#	c #7C1923",
"Y#	c #8B1723",
"Z#	c #681829",
"`#	c #49233E",
" $	c #FFB60C",
".$	c #2A1922",
"+$	c #2E2534",
"@$	c #7F2F32",
"#$	c #FFE005",
"$$	c #AB1B20",
"%$	c #881721",
"&$	c #7D1624",
"*$	c #8C1322",
"=$	c #821625",
"-$	c #641B2F",
";$	c #861725",
">$	c #FEDD01",
",$	c #401424",
"'$	c #3B2436",
")$	c #99130B",
"!$	c #66080F",
"~$	c #630915",
"{$	c #521223",
"]$	c #4A1D2E",
"^$	c #6D1C2B",
"/$	c #811522",
"($	c #5F1D2F",
"_$	c #5E1B2F",
":$	c #7C0D0F",
"<$	c #550E17",
"[$	c #52131E",
"}$	c #52192D",
"|$	c #7D1221",
"1$	c #2B2436",
"2$	c #2D304C",
"3$	c #A73032",
"4$	c #971A07",
"5$	c #2D151D",
"6$	c #341D28",
"7$	c #FFB308",
"8$	c #A91518",
"9$	c #8E1420",
"0$	c #7D1C2A",
"a$	c #711D31",
"b$	c #7C1B28",
"c$	c #6E1D2E",
"d$	c #6F1C2D",
"e$	c #671E33",
"f$	c #AF151C",
"g$	c #E82005",
"h$	c #F13509",
"i$	c #E63B03",
"j$	c #C5130B",
"k$	c #BB140D",
"l$	c #930C12",
"m$	c #7C0E1D",
"n$	c #7B1320",
"o$	c #8A1421",
"p$	c #8E1221",
"q$	c #8F111E",
"r$	c #DA2107",
"s$	c #810B10",
"t$	c #920C13",
"u$	c #2B2E50",
"v$	c #900D0F",
"w$	c #5D0C1C",
"x$	c #40172B",
"y$	c #3A263C",
"z$	c #720E0F",
"A$	c #33131C",
"B$	c #4F1721",
"C$	c #FFCB03",
"D$	c #7C1220",
"E$	c #7D171C",
"F$	c #323349",
"G$	c #333753",
"H$	c #A1151D",
"I$	c #721A2D",
"J$	c #6B182D",
"K$	c #AF1517",
"L$	c #C31812",
"M$	c #7D1D34",
"N$	c #9E0B18",
"O$	c #AD0B14",
"P$	c #371828",
"Q$	c #3E293D",
"R$	c #AB0E14",
"S$	c #2C2C45",
"T$	c #343750",
"U$	c #FFE806",
"V$	c #35192C",
"W$	c #29253A",
"X$	c #333246",
"Y$	c #CE1D07",
"Z$	c #581120",
"`$	c #C3160C",
" %	c #333651",
".%	c #A91E2A",
"+%	c #B51210",
"@%	c #A4150A",
"#%	c #521017",
"$%	c #B81710",
"%%	c #FB5109",
"&%	c #842337",
"*%	c #4B111A",
"=%	c #323247",
"-%	c #36354C",
";%	c #3C3549",
">%	c #721B2D",
",%	c #5A253A",
"'%	c #F63B18",
")%	c #640F15",
"!%	c #401C2B",
"~%	c #3E2F40",
"{%	c #2D2F4A",
"]%	c #8E171D",
"^%	c #801224",
"/%	c #800E15",
"(%	c #4C1422",
"_%	c #4C2132",
":%	c #FF840D",
"<%	c #AB1012",
"[%	c #7E0B15",
"}%	c #8A0E17",
"|%	c #980B13",
"1%	c #8D0F1A",
"2%	c #282232",
"3%	c #343347",
"4%	c #35364B",
"5%	c #33384F",
"6%	c #FF8601",
"7%	c #E82409",
"8%	c #FF9506",
"9%	c #261923",
"0%	c #2A212F",
"a%	c #2C2F4E",
"b%	c #4F111E",
"c%	c #312337",
"d%	c #342C42",
"e%	c #4E2335",
"f%	c #A81721",
"g%	c #761829",
"h%	c #7C1323",
"i%	c #3E1424",
"j%	c #301B2D",
"k%	c #5E101D",
"l%	c #671B27",
"m%	c #C81A0C",
"n%	c #5B1C31",
"o%	c #6B1728",
"p%	c #FF6D10",
"q%	c #B01616",
"r%	c #6B1C2A",
"s%	c #851623",
"t%	c #E32607",
"u%	c #3F1119",
"v%	c #361621",
"w%	c #2E2432",
"x%	c #333047",
"y%	c #BA1113",
"z%	c #5A1113",
"A%	c #2B161F",
"B%	c #281822",
"C%	c #752C3A",
"D%	c #900E10",
"E%	c #A71212",
"F%	c #2F1A26",
"G%	c #312F44",
"H%	c #37354A",
"I%	c #8B1521",
"J%	c #292543",
"K%	c #4C2640",
"L%	c #A9120D",
"M%	c #F65509",
"N%	c #231929",
"O%	c #313048",
"P%	c #BA1510",
"Q%	c #980D1E",
"R%	c #E31E0C",
"S%	c #2A2334",
"T%	c #2F2E44",
"U%	c #33364F",
"V%	c #FF6803",
"W%	c #E6370A",
"X%	c #620A11",
"Y%	c #690C12",
"Z%	c #660E17",
"`%	c #4E1926",
" &	c #25151E",
".&	c #2F2F45",
"+&	c #471624",
"@&	c #AB1E1D",
"#&	c #400F18",
"$&	c #33141E",
"%&	c #301C28",
"&&	c #362E3A",
"*&	c #311928",
"=&	c #323148",
"-&	c #8E0E0D",
";&	c #67101F",
">&	c #6D1320",
",&	c #2D2B40",
"'&	c #D1190D",
")&	c #2B2E46",
"!&	c #393448",
"~&	c #981C0F",
"{&	c #251D29",
"]&	c #322F45",
"^&	c #3E3344",
"/&	c #FFD404",
"(&	c #590C17",
"_&	c #4A0F1A",
":&	c #2C202E",
"<&	c #312F42",
"[&	c #363549",
"}&	c #F53503",
"|&	c #910D11",
"1&	c #E11D0C",
"2&	c #2F2E43",
"3&	c #FF790F",
"4&	c #46111F",
"5&	c #312437",
"6&	c #FA3C00",
"7&	c #E82307",
"8&	c #6C0911",
"9&	c #560A14",
"0&	c #520C17",
"a&	c #531219",
"b&	c #8F0E0D",
"c&	c #6F0C16",
"d&	c #8C1119",
"e&	c #F93506",
"f&	c #2C1821",
"g&	c #33344B",
"h&	c #830E15",
"i&	c #B91812",
"j&	c #371019",
"k&	c #291A26",
"l&	c #312F43",
"m&	c #3C3446",
"n&	c #FFD604",
"o&	c #7B0B0F",
"p&	c #740A0F",
"q&	c #580D18",
"r&	c #381C2A",
"s&	c #362C3F",
"t&	c #8C1C23",
"u&	c #2D2B44",
"v&	c #41131E",
"w&	c #2B2333",
"x&	c #323145",
"y&	c #E7600E",
"z&	c #6C0F1B",
"A&	c #561929",
"B&	c #29243C",
"C&	c #C6160A",
"D&	c #C4160A",
"E&	c #CC1A0B",
"F&	c #64111C",
"G&	c #80121F",
"H&	c #81101C",
"I&	c #AE1012",
"J&	c #7B2139",
"K&	c #6D0912",
"L&	c #4A131F",
"M&	c #AA1511",
"N&	c #FFA207",
"O&	c #520B15",
"P&	c #351621",
"Q&	c #302639",
"R&	c #3B3044",
"S&	c #FE790E",
"T&	c #98100D",
"U&	c #9A0E0D",
"V&	c #950C0E",
"W&	c #6F0B15",
"X&	c #5B1324",
"Y&	c #D2220D",
"Z&	c #711122",
"`&	c #39131D",
" *	c #301C27",
".*	c #34283A",
"+*	c #39313F",
"@*	c #FF7E00",
"#*	c #4D2E48",
"$*	c #9D0F12",
"%*	c #E82808",
"&*	c #2D1824",
"**	c #312E46",
"=*	c #2D334D",
"-*	c #95111B",
";*	c #8A1321",
">*	c #41283C",
",*	c #402A3F",
"'*	c #542237",
")*	c #6C1928",
"!*	c #871E27",
"~*	c #E7350E",
"{*	c #A51313",
"]*	c #A70F0E",
"^*	c #730814",
"/*	c #590F1E",
"(*	c #621624",
"_*	c #FF8800",
":*	c #DF2009",
"<*	c #D1160F",
"[*	c #592841",
"}*	c #DF2503",
"|*	c #CF1E0A",
"1*	c #FFFB39",
"2*	c #A5120E",
"3*	c #750A13",
"4*	c #680C17",
"5*	c #9B1410",
"6*	c #891015",
"7*	c #381725",
"8*	c #313044",
"9*	c #383448",
"0*	c #6F1D29",
"a*	c #5E0715",
"b*	c #530D1D",
"c*	c #761118",
"d*	c #2B2D49",
"e*	c #323650",
"f*	c #791625",
"g*	c #4F1F38",
"h*	c #5D1C2C",
"i*	c #641B2B",
"j*	c #D61E14",
"k*	c #252234",
"l*	c #812941",
"m*	c #A6120F",
"n*	c #A30E15",
"o*	c #910F1E",
"p*	c #810E23",
"q*	c #261B25",
"r*	c #261B28",
"s*	c #2A2330",
"t*	c #322F47",
"u*	c #3E2130",
"v*	c #312C45",
"w*	c #2F334D",
"x*	c #2B3552",
"y*	c #FF2F01",
"z*	c #361929",
"A*	c #333245",
"B*	c #7F0B11",
"C*	c #601220",
"D*	c #5A1C2B",
"E*	c #AE0D14",
"F*	c #5D192F",
"G*	c #681626",
"H*	c #3B121A",
"I*	c #341A27",
"J*	c #362D3F",
"K*	c #C71513",
"L*	c #AA0F16",
"M*	c #94101D",
"N*	c #941219",
"O*	c #C41311",
"P*	c #3B1522",
"Q*	c #44273A",
"R*	c #D01410",
"S*	c #291C2B",
"T*	c #2A2943",
"U*	c #630E14",
"V*	c #38111B",
"W*	c #2C1621",
"X*	c #2A1C2A",
"Y*	c #31283B",
"Z*	c #392B3E",
"`*	c #3C1A27",
" =	c #2F293C",
".=	c #323246",
"+=	c #343447",
"@=	c #9B0E0D",
"#=	c #71111D",
"$=	c #A90F17",
"%=	c #79131E",
"&=	c #6E1B2C",
"*=	c #631D2F",
"==	c #5E1E32",
"-=	c #7B131F",
";=	c #7A0A14",
">=	c #5E0A12",
",=	c #551323",
"'=	c #6A1728",
")=	c #AE1212",
"!=	c #5C141A",
"~=	c #2C2130",
"{=	c #343146",
"]=	c #C9160B",
"^=	c #BB1716",
"/=	c #353449",
"(=	c #C41808",
"_=	c #5C0F1B",
":=	c #5D1821",
"<=	c #E33402",
"[=	c #5B0B15",
"}=	c #490C18",
"|=	c #41111E",
"1=	c #441623",
"2=	c #531926",
"3=	c #610C19",
"4=	c #461524",
"5=	c #342535",
"6=	c #3A2F41",
"7=	c #FF6600",
"8=	c #421E2D",
"9=	c #8E101D",
"0=	c #30283D",
"a=	c #303452",
"b=	c #851223",
"c=	c #7B1328",
"d=	c #281C2E",
"e=	c #313047",
"f=	c #EC2410",
"g=	c #9E0E15",
"h=	c #BE1914",
"i=	c #2B2136",
"j=	c #A4140A",
"k=	c #670D18",
"l=	c #64111F",
"m=	c #261922",
"n=	c #2A2536",
"o=	c #352639",
"p=	c #3A2E41",
"q=	c #85171B",
"r=	c #333650",
"s=	c #FED503",
"t=	c #A6130D",
"u=	c #780A0F",
"v=	c #770B10",
"w=	c #B01010",
"x=	c #B8120D",
"y=	c #800815",
"z=	c #670B1F",
"A=	c #6D1324",
"B=	c #9F1319",
"C=	c #B5181A",
"D=	c #EE3405",
"E=	c #570F1B",
"F=	c #611D32",
"G=	c #A10D17",
"H=	c #321620",
"I=	c #363245",
"J=	c #FF9700",
"K=	c #FB7807",
"L=	c #4B1321",
"M=	c #41263A",
"N=	c #F62F00",
"O=	c #DC4404",
"P=	c #3A131D",
"Q=	c #381621",
"R=	c #8B0E12",
"S=	c #7F1121",
"T=	c #321923",
"U=	c #2E2B3E",
"V=	c #34354D",
"W=	c #BA1414",
"X=	c #FF6800",
"Y=	c #FE4500",
"Z=	c #F32702",
"`=	c #BA140F",
" -	c #2A253C",
".-	c #2E334B",
"+-	c #6E1229",
"@-	c #2D2D42",
"#-	c #34344E",
"$-	c #33354E",
"%-	c #A8151D",
"&-	c #9A131B",
"*-	c #7D1222",
"=-	c #72192C",
"--	c #FFDB05",
";-	c #3E1726",
">-	c #421E31",
",-	c #7D1323",
"'-	c #A10E17",
")-	c #CC160B",
"!-	c #FB2C01",
"~-	c #FC3A02",
"{-	c #B7130D",
"]-	c #BC140D",
"^-	c #BB160D",
"/-	c #2F2D44",
"(-	c #2F354E",
"_-	c #660B13",
":-	c #4D1421",
"<-	c #352336",
"[-	c #44293E",
"}-	c #2D3051",
"|-	c #8A0F1B",
"1-	c #28253A",
"2-	c #31324A",
"3-	c #810B0F",
"4-	c #6D0E1A",
"5-	c #31131C",
"6-	c #2A1E2B",
"7-	c #312C42",
"8-	c #36334B",
"9-	c #BA1617",
"0-	c #771328",
"a-	c #6C1728",
"b-	c #851726",
"c-	c #FFE907",
"d-	c #A00E10",
"e-	c #B20E11",
"f-	c #331929",
"g-	c #302C41",
"h-	c #313448",
"i-	c #B61111",
"j-	c #281F2F",
"k-	c #302F43",
"l-	c #A40B15",
"m-	c #351520",
"n-	c #2D1E2D",
"o-	c #56111D",
"p-	c #422637",
"q-	c #AD1507",
"r-	c #740D14",
"s-	c #6D0D18",
"t-	c #780D1A",
"u-	c #531123",
"v-	c #B91011",
"w-	c #540C1C",
"x-	c #471A2D",
"y-	c #512233",
"z-	c #AE1110",
"A-	c #5B0913",
"B-	c #540F19",
"C-	c #3C1824",
"D-	c #35293C",
"E-	c #442C3F",
"F-	c #2F283C",
"G-	c #36364F",
"H-	c #971923",
"I-	c #FF7A06",
"J-	c #F22E03",
"K-	c #2D314B",
"L-	c #22335A",
"M-	c #6A0915",
"N-	c #A01012",
"O-	c #BA120D",
"P-	c #870A13",
"Q-	c #241D2D",
"R-	c #2C2737",
"S-	c #B21809",
"T-	c #630B13",
"  . + @ # $ % & * = - ; > , ' ) ! ~ { ] ^ / ( _ : < [ } | 1 2 3 ",
"4 5 6 7 8 9 0 a b c d e f g h i j k l m n o p q r s t u v w x y ",
"z A B C D E F G H I J K L M N O P Q R S T U V W X Y Z `  ...+.@.",
"#.$.%.&.*.=.-.;.>.,.'.).!.~.{.].^./.(._.:.<.[.}.|.1.2.3.4.5.6.7.",
"8.9.X 0.a.b.c.d.e.f.g.h.i.j.k.l.m.n.o.p.q.r.s.t.u.v.w.x.y.z.A.B.",
"C.D.E.F.G.H.I.J.K.L.M.N.O.P.Q.R.S.T.U.V.W.X.Y.Z.`. +.+++@+#+$+%+",
"&+*+=+-+;+>+,+'+)+!+~+{+]+^+/+(+_+:+<+[+}+|+1+2+3+4+5+6+7+8+9+0+",
"a+b+c+d+e+f+g+h+i+j+k+l+m+n+o+p+q+r+s+t+u+v+w+x+y+z+A+B+C+D+E+F+",
"G+H+I+J+K+L+M+N+O+P+Q+R+S+T+U+V+W+X+Y+Z+`+ @.@+@@@#@$@%@&@*@=@-@",
";@>@,@'@)@!@~@{@]@^@/@(@_@:@<@[@}@|@1@2@3@6 6 4@5@6@7@8@9@0@a@b@",
"c@d@e@f@g@h@i@j@k@l@m@n@o@p@q@r@s@t@u@v@w@x@y@z@A@B@C@D@E@F@G@H@",
"I@J@K@L@M@N@O@P@Q@R@S@T@U@V@3 W@X@Y@Z@`@ #.#+#@###$#%#&#*#=#-#;#",
">#,#'#)#!#~#{#]#^#/#(#_#:#<#[#}#|#1#2#3#4#5#6#7#8#9#0#a#b#c#d#e#",
"f#g#h#i#j#k#l#m#n#o#p#q#r#s#t#u#v#w#x#y#z#A#B#C#D#E#F#G#H#I#J#K#",
"L#M#N#O#P#Q#R#S#T#U#V#W#X#Y#Z#`# $.$+$@$#$$$%$&$*$=$-$;$>$,$'$)$",
"!$~${$]$^$/$($_$:$<$[$}$|$1$2$3$4$5$6$7$8$9$0$a$b$c$d$e$f$g$h$i$",
"j$k$l$m$n$o$p$q$r$s$t$u$v$w$x$y$z$A$B$C$D$E$F$)#G$H$I$J$K$L$M$N$",
"O$P$Q$R$S$T$U$V$W$X$Y$Z$`$ %.%+%@%#%$%%%&%*%-.=%-%;%>%,%'%)%!%~%",
"{%]%^%/%(%_%:%<%[%}%|%1%2%3%4%5%6%7%8%9%0%a%b%c%d%e%6 f%g%h%i%j%",
"k%l%m%n%o%g@p%q%r%s%t%u%v%w%x%O#y%V.z%A%B%N#C%D%E%F%G%H%I%J%K%L%",
"M%N%O%P%Q%R%S%T%U%V%W%X%Y%Z%`% &.&+&@&#&$&%&&&*&=&-&;&>&,&'&)&!&",
"~&{&]&^&/&(&_&:&<&[&}&|&1&2&3&4&5&6&7&8&9&0&a&b&c&d&e&f&1$g&h&i&",
"j&k&l&m&n&o&p&q&r&s&t&u&v&w&x&y&z&A&B&C&D&E&F&G&H&I&J&K&L&U+M&N&",
"O&P&Q&R&S&T&U&V&W&X&Y&Z&`& *.*+*@*#*$*%*&***=*-*;*>*,*'*)*!*~*{*",
"]*^*/*(*_*:*<*[*}*|*1*2*3*4*5*6*7*8*9*0*a*b*c*d*e*f*g*h*i*j*k*l*",
"m*}%n*o*p*q*r*s*t*u*v*w*x*y*z*A*B*C*D*E*F*G*H*I*J*K*L*M*N*O*P*Q*",
"R*S*T*6 U*V*W*X*Y*Z*`* =.=+=@=#=$=%=&=*===-=;=>=,='=)=!=~={=]=^=",
"/=(=_=:=<=[=}=|=1=2=3=4=5=6=7=8=9=0=a=b=c=d=e=f=g=h=i=j=k=l=m=n=",
"o=p=q=r=s=t=o&u=v=w=x=y=z=A=B=C=D=E=!%F=G=H=$.I=J=K=L=M=N=O=P=Q=",
"R=S=T=U=V=W=X=Y=Z=`= -.-+-@-#-$-%-&-*-=---V ;->-,-'-)-!-~-{-]-^-",
"/-(-_-:-<-[-}-|-1-2-3-4-5-6-7-8-9-0-a-b-c-d-e-f-g-h-i-j-k-l-m-n-",
"o-p-q-r-s-t-u-v-w-x-y-z-A-B-C-D-E-F-G-H-I-J-K-L-M-N-O-P-Q-R-S-T-"};
