/* XPM */
static char * NO_xpm[] = {
"32 32 192 2",
"  	c #7C0D04",
". 	c #FB3402",
"+ 	c #83120A",
"@ 	c #7C0E0A",
"# 	c #751204",
"$ 	c #C41C04",
"% 	c #FE7816",
"& 	c #DC2A02",
"* 	c #F87905",
"= 	c #D42203",
"- 	c #D42A02",
"; 	c #F45C01",
"> 	c #C31603",
", 	c #BC1B04",
"' 	c #BC1B0A",
") 	c #B41A0A",
"! 	c #FFA717",
"~ 	c #8B0D02",
"{ 	c #750C03",
"] 	c #EC4C01",
"^ 	c #E64705",
"/ 	c #FD6C03",
"( 	c #FE8727",
"_ 	c #C42203",
": 	c #8C1204",
"< 	c #941A07",
"[ 	c #7C1105",
"} 	c #9B1304",
"| 	c #F33301",
"1 	c #941305",
"2 	c #831105",
"3 	c #FF9626",
"4 	c #FFB626",
"5 	c #FFAD48",
"6 	c #860E11",
"7 	c #D31D04",
"8 	c #CC2104",
"9 	c #CB1D04",
"0 	c #FD7C02",
"a 	c #7C110A",
"b 	c #7C0D12",
"c 	c #C4220B",
"d 	c #9C190B",
"e 	c #840500",
"f 	c #F34301",
"g 	c #A5190B",
"h 	c #D84702",
"i 	c #C31C0A",
"j 	c #BC1C11",
"k 	c #FC5817",
"l 	c #B51612",
"m 	c #B31503",
"n 	c #D4220A",
"o 	c #AC1904",
"p 	c #9B140A",
"q 	c #AC150A",
"r 	c #EA250B",
"s 	c #DB2303",
"t 	c #F45401",
"u 	c #FFE207",
"v 	c #9A0E0B",
"w 	c #8C120A",
"x 	c #830D04",
"y 	c #930500",
"z 	c #D31D0A",
"A 	c #BB160A",
"B 	c #F32C02",
"C 	c #E32402",
"D 	c #8B0E0A",
"E 	c #DC3301",
"F 	c #820E0A",
"G 	c #7C0401",
"H 	c #E42B02",
"I 	c #961613",
"J 	c #FEA708",
"K 	c #A31404",
"L 	c #A41903",
"M 	c #A30D01",
"N 	c #930C01",
"O 	c #841311",
"P 	c #E7370C",
"Q 	c #AB0E01",
"R 	c #D83724",
"S 	c #94130A",
"T 	c #760604",
"U 	c #FC440C",
"V 	c #E43313",
"W 	c #EFA700",
"X 	c #CB1503",
"Y 	c #F22502",
"Z 	c #EB8B05",
"` 	c #C3160A",
" .	c #A3150A",
"..	c #F43B01",
"+.	c #DC3314",
"@.	c #DB230A",
"#.	c #BB1503",
"$.	c #7B1A05",
"%.	c #7C1311",
"&.	c #930E0A",
"*.	c #EB2502",
"=.	c #DB1D02",
"-.	c #9B0D02",
";.	c #FFD512",
">.	c #CB160A",
",.	c #8B0500",
"'.	c #EB2B0B",
").	c #D32B13",
"!.	c #FC8706",
"~.	c #CB1C0A",
"{.	c #CB2413",
"].	c #FD9707",
"^.	c #F84816",
"/.	c #FB4302",
"(.	c #C42B14",
"_.	c #760E0A",
":.	c #D41604",
"<.	c #FE7726",
"[.	c #E43B01",
"}.	c #F53915",
"|.	c #E32B0B",
"1.	c #EB2B02",
"2.	c #F96707",
"3.	c #EC3302",
"4.	c #AC1A0B",
"5.	c #B92918",
"6.	c #FFB717",
"7.	c #FE8817",
"8.	c #B42202",
"9.	c #A50B07",
"0.	c #A61712",
"a.	c #DC2B0C",
"b.	c #CC2B14",
"c.	c #B3150A",
"d.	c #D62B1A",
"e.	c #FC5302",
"f.	c #AB1404",
"g.	c #F3340B",
"h.	c #75120A",
"i.	c #9B0500",
"j.	c #B41A04",
"k.	c #EC330B",
"l.	c #F83A0B",
"m.	c #CC220B",
"n.	c #FE9817",
"o.	c #AC1B12",
"p.	c #D41E12",
"q.	c #E51D07",
"r.	c #F95726",
"s.	c #A40F12",
"t.	c #6D0B02",
"u.	c #EB3B01",
"v.	c #FB3B02",
"w.	c #E3240A",
"x.	c #B41C12",
"y.	c #FA540B",
"z.	c #FD6403",
"A.	c #DB1D0A",
"B.	c #A92503",
"C.	c #C72A08",
"D.	c #E83717",
"E.	c #EA5702",
"F.	c #851814",
"G.	c #DB2413",
"H.	c #B62608",
"I.	c #E62914",
"J.	c #FFB60A",
"K.	c #BC220C",
"L.	c #E43301",
"M.	c #C50F00",
"N.	c #C61C12",
"O.	c #E42C13",
"P.	c #9B1411",
"Q.	c #BA0E02",
"R.	c #83070A",
"S.	c #B30D01",
"T.	c #FFE15B",
"U.	c #FE6B0B",
"V.	c #E94618",
"W.	c #D83704",
"X.	c #DC331B",
"Y.	c #6D1205",
"Z.	c #FFC717",
"`.	c #CC2B01",
" +	c #BC2202",
".+	c #E81E0D",
"++	c #FEC708",
"@+	c #992500",
"#+	c #9C1A03",
"$+	c #EC4301",
"%+	c #FC5C02",
"&+	c #C83524",
"  . + @ # $ % & * & = - ; > > , ' ) ) - ! ~ { ] ^ / ( _ : < + [ ",
"} | 1 + + . } 2 [ 3 4 5 6 # 2 7 7 8 9 0 1 a b c : d e f g 1 : + ",
"& h i i j k $ l m , n $ o p q r s & t u v w x y z 9 A B C i , _ ",
"o D z = 7 E 8 F ~ = ) F G H B : 1 I ) J q 1 : K L M N + O P Q R ",
"  j L S < T [ @ I U V 2 a W f X z = Y Z _ > i `  ...H z 9 m + @ ",
"} C s z +.2 [    .@.#.S @   . F $.x %.2 F @.= 2 &.y ~ *...> o  .",
"=.A ` = q  .L q l | = m -.p ;.} x @ F   @ a { & C >.m w ,.'.@.).",
"2 !./ ! E c ~.{.A ].^.8 9 7 /. .p x x 2 2   1 , (.@ _.:.c <.} 2 ",
"j [._ }.Z |.@.C 1.} 2.. 3.3 E ` p 4.o ' A > 5.$ } : w ^ , l $ ' ",
": 2 D -.6.~   7.8.9.x S } 0.T a.m i 5.{ F 2 D : 7 ~.9 b.2 z @.= ",
"c.i > h 9., , d.  c 9 = %.(.#.A = d.A ) i > $ , B B 2 x x F e.f.",
"1 ~ e 2 N 6 o g m ) v R F x 2 !.+ : 1 g.w h.i.= 9 _ > A ` i . *.",
"j.q g R 2 2 x *.1.l M ^.c.o f.k.8 , 9 & + [ @ l._.w F + i.F T m.",
"7 = z F 2 S v g L 1 -.7 @.8 $ U C C . n.d 2 ~ @.o.) j.j.w 2 # @ ",
"M 1.#. .c.9 @.C p.~ G A q ' q.  r.s.-.F t.g o u.v.w.& k.1 S D w ",
"@.=.= 7 =.+ : $ D a x F _.x v.c $ ~.+ F x G s ( =.e + _.x.' i i ",
"_.9.S 1 y.#.` w.&.  # [ # A 4 Q g -.o 1 : S 7 z.].&.F   # A.z 2 ",
"4.9 $ i !.v.p K 8 s.w D o ;.B.7 1.H =.n m.= } + C.o.~ x @ y & A ",
"= : f.' @ ~ k D.!.=.= 8 b.0.g E.F.@ B G.n l.l ) f.q c.c.g H.!.- ",
"@ A.I.F [ F A.r J.K.a 5.q ` L.@   b T M.i.q ~.N.$ O.#.~.$ -.O # ",
"P.Q., K  .4.}.< A.q : x '.1 ! w + [   [ { H F.|.-.x '.C [ w S } ",
"9 C 8 _ ~., _ B @ R.) c.S.1.J.j.q q q  .q m o 1 F + M 4.o j.9 9 ",
" . .9 9 7 8 a./.D R.x x 6 T.Y U.8 z z z e { ,.=.' , n x - Y 8.#.",
"V.g.O # T 4.W.B.o.+   x @ # '.1 X.[ a 1 S 2 Y.  3.H s 7 C j.h.x ",
") ~ [ [   -.Z.5.A :   [ x   A 9 q q 4.S < d [   !.&.< `.2 [ @ x ",
"L.q } &. .B L.4.9 y x F x @ x K e   S p : 1 1 x  += 8 : 2 [ x j.",
":..+8 y @ : Z.++@.K Q &.+ a w @.+ + : v q 9.L i E ].f 0.1 :  .= ",
"h.0.-.s.d : 6 /.: f.) 8 $ ' ' 1.K 1 o 1 1 1 : [ 1 n.=.m.9 7 f.h.",
"2 a > $ 9 9 i L.) , $ 9 = 8  +' ~.c c < p S + x } v.].J @+7.o S ",
"X #+    z s $+%+*.e &+C 7 = V - = = ~.$ $ o D 2 #++ S S h.Y.s ~.",
"&.&.S + + G &.j.M 2 @ ~ v.W.@   ,.H s n C , , , , $ ~.: @ _.i.q.",
"9 , 5.o.M &.A.*.f j.q K %+L ~ [ a @ @ 1 _ s = = C i.D #+D x  .` "};
