/* XPM */
static char * SO_xpm[] = {
"32 32 997 2",
"  	c #4C4B51",
". 	c #5F585B",
"+ 	c #52494C",
"@ 	c #FA3F18",
"# 	c #744343",
"$ 	c #6C585C",
"% 	c #795857",
"& 	c #FF4006",
"* 	c #FE3506",
"= 	c #ED2C07",
"- 	c #EF3005",
"; 	c #D52208",
"> 	c #4F141C",
", 	c #684248",
"' 	c #663E3F",
") 	c #A6140D",
"! 	c #461920",
"~ 	c #3F1C23",
"{ 	c #3A282F",
"] 	c #44353B",
"^ 	c #FF3A0A",
"/ 	c #AE1F12",
"( 	c #561921",
"_ 	c #443439",
": 	c #413D43",
"< 	c #49464C",
"[ 	c #585254",
"} 	c #3C1117",
"| 	c #481820",
"1 	c #4B262B",
"2 	c #443336",
"3 	c #4A4850",
"4 	c #312129",
"5 	c #38383E",
"6 	c #49484D",
"7 	c #765C56",
"8 	c #FE3907",
"9 	c #C82F24",
"0 	c #FF3908",
"a 	c #722527",
"b 	c #3F282C",
"c 	c #652327",
"d 	c #3E383F",
"e 	c #464047",
"f 	c #E22A07",
"g 	c #65242D",
"h 	c #BB1E0D",
"i 	c #32131A",
"j 	c #2A1C27",
"k 	c #301B21",
"l 	c #393337",
"m 	c #5D5358",
"n 	c #864C50",
"o 	c #E42705",
"p 	c #EC2B04",
"q 	c #580912",
"r 	c #30131F",
"s 	c #332D30",
"t 	c #564C51",
"u 	c #5C484B",
"v 	c #63161F",
"w 	c #7F262F",
"x 	c #691011",
"y 	c #471E1E",
"z 	c #7B090C",
"A 	c #330308",
"B 	c #200A0F",
"C 	c #3A242D",
"D 	c #FA2E02",
"E 	c #8A1513",
"F 	c #3A252B",
"G 	c #3A3134",
"H 	c #3E3036",
"I 	c #48444B",
"J 	c #545056",
"K 	c #5C4A50",
"L 	c #423234",
"M 	c #443D42",
"N 	c #260E19",
"O 	c #2B151E",
"P 	c #2A1A21",
"Q 	c #373439",
"R 	c #484549",
"S 	c #6C5655",
"T 	c #49232A",
"U 	c #3F191F",
"V 	c #2F191F",
"W 	c #8A0A0A",
"X 	c #2E151D",
"Y 	c #564A4D",
"Z 	c #E42408",
"` 	c #C21B09",
" .	c #DC2306",
"..	c #D01E06",
"+.	c #C71609",
"@.	c #290B14",
"#.	c #25151C",
"$.	c #251A21",
"%.	c #464044",
"&.	c #2C191F",
"*.	c #2B2126",
"=.	c #2E262D",
"-.	c #39353E",
";.	c #4B464D",
">.	c #585359",
",.	c #5E5C62",
"'.	c #584D58",
").	c #3E393F",
"!.	c #433F45",
"~.	c #210C14",
"{.	c #210F17",
"].	c #2E1219",
"^.	c #2B1D24",
"/.	c #535055",
"(.	c #685253",
"_.	c #AF1810",
":.	c #33232A",
"<.	c #2F2128",
"[.	c #E6260C",
"}.	c #C41D0B",
"|.	c #2C1E24",
"1.	c #45353C",
"2.	c #382D36",
"3.	c #21191C",
"4.	c #1B0305",
"5.	c #26161E",
"6.	c #500D1B",
"7.	c #2A262B",
"8.	c #483F43",
"9.	c #261B24",
"0.	c #2C262D",
"a.	c #302D33",
"b.	c #2F2931",
"c.	c #514B50",
"d.	c #5B5256",
"e.	c #676266",
"f.	c #68464B",
"g.	c #B82412",
"h.	c #3D373D",
"i.	c #150F14",
"j.	c #210E15",
"k.	c #221217",
"l.	c #2B1B23",
"m.	c #352C32",
"n.	c #61484A",
"o.	c #C1230F",
"p.	c #2E1D23",
"q.	c #312831",
"r.	c #3B383C",
"s.	c #FB4514",
"t.	c #3F171D",
"u.	c #51454D",
"v.	c #434148",
"w.	c #201B1E",
"x.	c #280B16",
"y.	c #25171E",
"z.	c #251D23",
"A.	c #22191D",
"B.	c #453F46",
"C.	c #451417",
"D.	c #29242A",
"E.	c #2E292F",
"F.	c #363135",
"G.	c #5A5357",
"H.	c #5A5659",
"I.	c #615659",
"J.	c #903B3D",
"K.	c #2B1B21",
"L.	c #3F3338",
"M.	c #261A1F",
"N.	c #2A262D",
"O.	c #211E22",
"P.	c #16080B",
"Q.	c #261219",
"R.	c #3A2127",
"S.	c #5E383A",
"T.	c #CB2313",
"U.	c #2D2029",
"V.	c #38272D",
"W.	c #63606A",
"X.	c #F9440D",
"Y.	c #311820",
"Z.	c #312529",
"`.	c #57535B",
" +	c #4E4E54",
".+	c #160D10",
"++	c #23161D",
"@+	c #26131B",
"#+	c #2B1118",
"$+	c #2F1E22",
"%+	c #4D3B3F",
"&+	c #281E23",
"*+	c #2D242A",
"=+	c #312B32",
"-+	c #39363B",
";+	c #5D575C",
">+	c #6C4F53",
",+	c #654C4F",
"'+	c #FF3F0D",
")+	c #451C1F",
"!+	c #35242D",
"~+	c #3A2731",
"{+	c #3A363D",
"]+	c #36343C",
"^+	c #2A292E",
"/+	c #28141A",
"(+	c #210F15",
"_+	c #262127",
":+	c #B61E12",
"<+	c #521012",
"[+	c #372C33",
"}+	c #644B4F",
"|+	c #B9240F",
"1+	c #32181F",
"2+	c #36282C",
"3+	c #7B525A",
"4+	c #763D43",
"5+	c #3B3A40",
"6+	c #30111A",
"7+	c #BD1A06",
"8+	c #36111A",
"9+	c #421920",
"0+	c #810C07",
"a+	c #271C21",
"b+	c #2B2429",
"c+	c #2F2C31",
"d+	c #303138",
"e+	c #756365",
"f+	c #625356",
"g+	c #6F403F",
"h+	c #781111",
"i+	c #3A1C22",
"j+	c #2D262D",
"k+	c #312C33",
"l+	c #3C383F",
"m+	c #4D4148",
"n+	c #424047",
"o+	c #312C31",
"p+	c #160F16",
"q+	c #2C262A",
"r+	c #6B0907",
"s+	c #4D474A",
"t+	c #C82F14",
"u+	c #67393D",
"v+	c #431014",
"w+	c #31171E",
"x+	c #2F2427",
"y+	c #3B1013",
"z+	c #413335",
"A+	c #A62215",
"B+	c #403D42",
"C+	c #441F27",
"D+	c #3E0C16",
"E+	c #612228",
"F+	c #4C060B",
"G+	c #2C0F19",
"H+	c #2D1F24",
"I+	c #2D272E",
"J+	c #654347",
"K+	c #5C5258",
"L+	c #684D4F",
"M+	c #DF2A17",
"N+	c #50121B",
"O+	c #2F1E25",
"P+	c #2B262C",
"Q+	c #2D2930",
"R+	c #4B4950",
"S+	c #4E4B55",
"T+	c #4E454C",
"U+	c #3C373C",
"V+	c #AD150B",
"W+	c #210A0F",
"X+	c #2E282E",
"Y+	c #5D585A",
"Z+	c #C53C34",
"`+	c #2A1119",
" @	c #291B22",
".@	c #463D3F",
"+@	c #281920",
"@@	c #39363C",
"#@	c #474447",
"$@	c #7D292D",
"%@	c #583B41",
"&@	c #6B1C1F",
"*@	c #60151D",
"=@	c #7A0B0C",
"-@	c #540C15",
";@	c #421821",
">@	c #3E3134",
",@	c #473E43",
"'@	c #5A4B4F",
")@	c #633E41",
"!@	c #D22507",
"~@	c #3B0F15",
"{@	c #2C2128",
"]@	c #2A252C",
"^@	c #302A32",
"/@	c #332F35",
"(@	c #4D4D56",
"_@	c #5E4448",
":@	c #564F55",
"<@	c #54484E",
"[@	c #443C3F",
"}@	c #2E0C15",
"|@	c #3E363B",
"1@	c #54474C",
"2@	c #595051",
"3@	c #2C151D",
"4@	c #271C23",
"5@	c #6C0C06",
"6@	c #251E24",
"7@	c #45292C",
"8@	c #4C4B53",
"9@	c #504C51",
"0@	c #53494F",
"a@	c #564245",
"b@	c #7A181D",
"c@	c #D91F06",
"d@	c #8E0F0A",
"e@	c #561219",
"f@	c #47272C",
"g@	c #483B3E",
"h@	c #68353E",
"i@	c #F73309",
"j@	c #700F0A",
"k@	c #2D0F18",
"l@	c #271E24",
"m@	c #282229",
"n@	c #2D272F",
"o@	c #312E34",
"p@	c #535259",
"q@	c #5A585F",
"r@	c #5B595F",
"s@	c #584E54",
"t@	c #534245",
"u@	c #680A0B",
"v@	c #2D1920",
"w@	c #3E3136",
"x@	c #3B3034",
"y@	c #241722",
"z@	c #35253C",
"A@	c #2C141A",
"B@	c #282024",
"C@	c #302A30",
"D@	c #343137",
"E@	c #363238",
"F@	c #61595E",
"G@	c #5B4D52",
"H@	c #503B42",
"I@	c #3F2C30",
"J@	c #F82E05",
"K@	c #AA170C",
"L@	c #59181A",
"M@	c #523132",
"N@	c #EF2E16",
"O@	c #CA1F06",
"P@	c #C81B05",
"Q@	c #590B14",
"R@	c #2D1C21",
"S@	c #2C242A",
"T@	c #2E2A2F",
"U@	c #464A55",
"V@	c #5F5C63",
"W@	c #666064",
"X@	c #615C63",
"Y@	c #5D5055",
"Z@	c #604243",
"`@	c #AB1609",
" #	c #750B0B",
".#	c #700909",
"+#	c #251C23",
"@#	c #37070E",
"##	c #2D1720",
"$#	c #262027",
"%#	c #2A242B",
"&#	c #2E2A30",
"*#	c #3F3E44",
"=#	c #655860",
"-#	c #59555B",
";#	c #534C50",
">#	c #4B3E45",
",#	c #43292F",
"'#	c #F82D02",
")#	c #F42D03",
"!#	c #FF3205",
"~#	c #D01F07",
"{#	c #33131A",
"]#	c #301924",
"^#	c #E42704",
"/#	c #720E11",
"(#	c #42181F",
"_#	c #651521",
":#	c #5F6269",
"<#	c #6E6B70",
"[#	c #6C6166",
"}#	c #61575C",
"|#	c #5D4E50",
"1#	c #693A3D",
"2#	c #3F141B",
"3#	c #321D25",
"4#	c #8F0B0C",
"5#	c #2D1319",
"6#	c #331B20",
"7#	c #360B13",
"8#	c #2D151D",
"9#	c #271E25",
"0#	c #2A2329",
"a#	c #515459",
"b#	c #675C5E",
"c#	c #5C5B62",
"d#	c #565258",
"e#	c #4A3B3F",
"f#	c #3A1116",
"g#	c #FC2B01",
"h#	c #61080C",
"i#	c #2E1017",
"j#	c #3B0F1E",
"k#	c #2C252C",
"l#	c #342930",
"m#	c #DF2406",
"n#	c #88100E",
"o#	c #401B20",
"p#	c #3E282B",
"q#	c #6E6064",
"r#	c #754F55",
"s#	c #5D4F51",
"t#	c #654B4C",
"u#	c #E72F0F",
"v#	c #351A21",
"w#	c #31272E",
"x#	c #3D373E",
"y#	c #7F161B",
"z#	c #DB2705",
"A#	c #49060D",
"B#	c #351018",
"C#	c #2B1822",
"D#	c #3E1A20",
"E#	c #342428",
"F#	c #615B60",
"G#	c #5E5E63",
"H#	c #5F6066",
"I#	c #5B5A60",
"J#	c #595157",
"K#	c #4F4448",
"L#	c #330D16",
"M#	c #960E09",
"N#	c #2D0812",
"O#	c #27171E",
"P#	c #2B2227",
"Q#	c #261F24",
"R#	c #3D3A3F",
"S#	c #413C40",
"T#	c #952625",
"U#	c #620C11",
"V#	c #401B21",
"W#	c #664547",
"X#	c #5E3E41",
"Y#	c #5F3538",
"Z#	c #7F2022",
"`#	c #501219",
" $	c #371C20",
".$	c #373038",
"+$	c #605B5F",
"@$	c #47353B",
"#$	c #413136",
"$$	c #9E1309",
"%$	c #52090E",
"&$	c #3A0F18",
"*$	c #25181E",
"=$	c #2A1D22",
"-$	c #444148",
";$	c #63676D",
">$	c #615A5E",
",$	c #5E5B62",
"'$	c #5C545A",
")$	c #E72605",
"!$	c #8C0D0A",
"~$	c #420813",
"{$	c #580918",
"]$	c #3E141B",
"^$	c #2C252A",
"/$	c #2E252A",
"($	c #524E52",
"_$	c #5A5153",
":$	c #532B30",
"<$	c #3E0C17",
"[$	c #572123",
"}$	c #D32309",
"|$	c #B62016",
"1$	c #6D141D",
"2$	c #332027",
"3$	c #605C61",
"4$	c #655F62",
"5$	c #444046",
"6$	c #48444A",
"7$	c #3F363C",
"8$	c #32292F",
"9$	c #330D15",
"0$	c #480F17",
"a$	c #28191F",
"b$	c #3A363B",
"c$	c #5B4D51",
"d$	c #65484C",
"e$	c #625257",
"f$	c #624E54",
"g$	c #594142",
"h$	c #400B0C",
"i$	c #A31208",
"j$	c #4F070E",
"k$	c #3F101A",
"l$	c #3E151C",
"m$	c #3F151C",
"n$	c #2E262A",
"o$	c #625A5D",
"p$	c #5F5255",
"q$	c #472629",
"r$	c #B01406",
"s$	c #36080F",
"t$	c #3D101A",
"u$	c #322226",
"v$	c #E43216",
"w$	c #38333A",
"x$	c #3A3840",
"y$	c #695F62",
"z$	c #713F44",
"A$	c #4C4A51",
"B$	c #584F54",
"C$	c #554F56",
"D$	c #4D4649",
"E$	c #31070F",
"F$	c #27161C",
"G$	c #2B1820",
"H$	c #302027",
"I$	c #58474B",
"J$	c #604447",
"K$	c #5F484C",
"L$	c #664545",
"M$	c #573E41",
"N$	c #320B0D",
"O$	c #34272D",
"P$	c #8E0F09",
"Q$	c #490A14",
"R$	c #44111A",
"S$	c #451518",
"T$	c #461821",
"U$	c #4C3133",
"V$	c #472F32",
"W$	c #241215",
"X$	c #1F0B12",
"Y$	c #271D24",
"Z$	c #2B2328",
"`$	c #EC431A",
" %	c #55525A",
".%	c #676468",
"+%	c #675457",
"@%	c #21181C",
"#%	c #515057",
"$%	c #6C494B",
"%%	c #6C5252",
"&%	c #604448",
"*%	c #250D11",
"=%	c #27181D",
"-%	c #2E2127",
";%	c #4D3C3F",
">%	c #5D3C40",
",%	c #60393C",
"'%	c #5D4143",
")%	c #603F43",
"!%	c #5A363A",
"~%	c #271015",
"{%	c #2A1C23",
"]%	c #433A3D",
"^%	c #9E0E09",
"/%	c #A71107",
"(%	c #69090C",
"_%	c #45121B",
":%	c #3E191C",
"<%	c #24070C",
"[%	c #251E27",
"}%	c #2D262E",
"|%	c #251E23",
"1%	c #2F292F",
"2%	c #EF4D1B",
"3%	c #686A6D",
"4%	c #775662",
"5%	c #6A3235",
"6%	c #2F2228",
"7%	c #693F42",
"8%	c #644245",
"9%	c #634446",
"0%	c #613536",
"a%	c #6E080B",
"b%	c #291C20",
"c%	c #46393D",
"d%	c #583C40",
"e%	c #5F3237",
"f%	c #613339",
"g%	c #5C3034",
"h%	c #5B3537",
"i%	c #90191A",
"j%	c #29141A",
"k%	c #34222A",
"l%	c #22171A",
"m%	c #281C23",
"n%	c #C41807",
"o%	c #4B050A",
"p%	c #44161E",
"q%	c #251920",
"r%	c #281C21",
"s%	c #281F29",
"t%	c #2C2429",
"u%	c #2C282E",
"v%	c #332F34",
"w%	c #F2501C",
"x%	c #645960",
"y%	c #714447",
"z%	c #40191E",
"A%	c #5C3237",
"B%	c #5D3336",
"C%	c #613033",
"D%	c #6B2D2E",
"E%	c #F92F05",
"F%	c #350E12",
"G%	c #3C141A",
"H%	c #543035",
"I%	c #B61E0D",
"J%	c #7B2123",
"K%	c #67292E",
"L%	c #753538",
"M%	c #FD3305",
"N%	c #B9180C",
"O%	c #5D0C0D",
"P%	c #3B1621",
"Q%	c #261920",
"R%	c #332930",
"S%	c #711212",
"T%	c #53060A",
"U%	c #270B19",
"V%	c #461020",
"W%	c #22161A",
"X%	c #252229",
"Y%	c #2B272E",
"Z%	c #3A383E",
"`%	c #F24B1A",
" &	c #6A4F52",
".&	c #6B403C",
"+&	c #FF3708",
"@&	c #F72E05",
"#&	c #531920",
"$&	c #5A2427",
"%&	c #FE3307",
"&&	c #330F15",
"*&	c #29171F",
"=&	c #584E51",
"-&	c #60494E",
";&	c #CE2E0D",
">&	c #5B4145",
",&	c #D42312",
"'&	c #FF3704",
")&	c #F72E03",
"!&	c #4E0B10",
"~&	c #2D1114",
"{&	c #312A31",
"]&	c #4D3D3E",
"^&	c #250F12",
"/&	c #271921",
"(&	c #2B151B",
"_&	c #890A0C",
":&	c #450B16",
"<&	c #2E121B",
"[&	c #2C2127",
"}&	c #2E272D",
"|&	c #373238",
"1&	c #666367",
"2&	c #A21E17",
"3&	c #60474C",
"4&	c #634747",
"5&	c #610F12",
"6&	c #2C1B24",
"7&	c #761219",
"8&	c #613641",
"9&	c #351119",
"0&	c #2B141C",
"a&	c #22191E",
"b&	c #5B575A",
"c&	c #625A60",
"d&	c #654F53",
"e&	c #614F54",
"f&	c #544446",
"g&	c #421119",
"h&	c #37131A",
"i&	c #310D15",
"j&	c #271A1F",
"k&	c #494147",
"l&	c #6C2932",
"m&	c #281B25",
"n&	c #292127",
"o&	c #413D4C",
"p&	c #3E2528",
"q&	c #D71C07",
"r&	c #BC1508",
"s&	c #850F0D",
"t&	c #700D15",
"u&	c #69282E",
"v&	c #F93C13",
"w&	c #645456",
"x&	c #674646",
"y&	c #522E2F",
"z&	c #271418",
"A&	c #2F2127",
"B&	c #33262C",
"C&	c #6D4D5D",
"D&	c #35141E",
"E&	c #251E25",
"F&	c #5B3540",
"G&	c #433B44",
"H&	c #675D61",
"I&	c #65555A",
"J&	c #574B4F",
"K&	c #4B0B12",
"L&	c #30161D",
"M&	c #2F151F",
"N&	c #261D23",
"O&	c #58575B",
"P&	c #4D0F0E",
"Q&	c #421A21",
"R&	c #6F2225",
"S&	c #2F2B30",
"T&	c #553233",
"U&	c #3C2123",
"V&	c #25040B",
"W&	c #27040F",
"X&	c #291218",
"Y&	c #2C1219",
"Z&	c #38191F",
"`&	c #643739",
" *	c #652F32",
".*	c #7C2530",
"+*	c #8A0E09",
"@*	c #302326",
"#*	c #40282A",
"$*	c #534C58",
"%*	c #F33710",
"&*	c #2B141B",
"**	c #291F26",
"=*	c #3F343A",
"-*	c #635F66",
";*	c #6C5A60",
">*	c #604E52",
",*	c #B61A0B",
"'*	c #830D0B",
")*	c #2B1C25",
"!*	c #3C3139",
"~*	c #503436",
"{*	c #2A1D24",
"]*	c #6E2824",
"^*	c #302930",
"/*	c #563C3D",
"(*	c #493439",
"_*	c #392020",
":*	c #2E0813",
"<*	c #31060D",
"[*	c #261018",
"}*	c #26141D",
"|*	c #2B1920",
"1*	c #6D5553",
"2*	c #F72F06",
"3*	c #C41C0A",
"4*	c #37080F",
"5*	c #2B171C",
"6*	c #524F53",
"7*	c #BA2319",
"8*	c #5A4F4F",
"9*	c #CB1F06",
"0*	c #2B1A23",
"a*	c #2B252B",
"b*	c #343136",
"c*	c #45434B",
"d*	c #644E4E",
"e*	c #6B5559",
"f*	c #5E4F53",
"g*	c #48373A",
"h*	c #510A10",
"i*	c #760C0A",
"j*	c #413135",
"k*	c #DE2908",
"l*	c #291C22",
"m*	c #322C33",
"n*	c #732A31",
"o*	c #53343A",
"p*	c #422B2F",
"q*	c #770E09",
"r*	c #850B0A",
"s*	c #271018",
"t*	c #2D121D",
"u*	c #251D22",
"v*	c #29191F",
"w*	c #6B3937",
"x*	c #391419",
"y*	c #2A131B",
"z*	c #360509",
"A*	c #2C161B",
"B*	c #584243",
"C*	c #D62609",
"D*	c #3A272B",
"E*	c #D72307",
"F*	c #2D161F",
"G*	c #2C2228",
"H*	c #2F272B",
"I*	c #342D31",
"J*	c #6E6D73",
"K*	c #6F5C61",
"L*	c #5E4C51",
"M*	c #473A40",
"N*	c #23161F",
"O*	c #29232C",
"P*	c #3B383E",
"Q*	c #BC2116",
"R*	c #2E1621",
"S*	c #4D3B40",
"T*	c #4A3639",
"U*	c #5C171A",
"V*	c #600A07",
"W*	c #231013",
"X*	c #D42006",
"Y*	c #9C100D",
"Z*	c #29191E",
"`*	c #2B2024",
" =	c #5F373E",
".=	c #AE140D",
"+=	c #2C161A",
"@=	c #310A17",
"#=	c #47050A",
"$=	c #30141A",
"%=	c #6B3839",
"&=	c #971E1F",
"*=	c #38161D",
"==	c #74100E",
"-=	c #650B11",
";=	c #3B1C24",
">=	c #342528",
",=	c #362B2E",
"'=	c #69565A",
")=	c #5A4C50",
"!=	c #584149",
"~=	c #40323B",
"{=	c #26232A",
"]=	c #2F2C33",
"^=	c #655E61",
"/=	c #504141",
"(=	c #462D31",
"_=	c #B41A0B",
":=	c #2B131B",
"<=	c #251F26",
"[=	c #251D25",
"}=	c #2B2329",
"|=	c #7A2627",
"1=	c #BD190B",
"2=	c #4E2730",
"3=	c #B11C11",
"4=	c #620A0E",
"5=	c #440710",
"6=	c #3A070A",
"7=	c #D01C06",
"8=	c #7E1112",
"9=	c #F9340A",
"0=	c #2E272B",
"a=	c #B42923",
"b=	c #221216",
"c=	c #614449",
"d=	c #871212",
"e=	c #461F24",
"f=	c #3B282C",
"g=	c #5F474C",
"h=	c #55363C",
"i=	c #46383E",
"j=	c #221B21",
"k=	c #2B262D",
"l=	c #444147",
"m=	c #5A5459",
"n=	c #574445",
"o=	c #AB130D",
"p=	c #A0140F",
"q=	c #2B191F",
"r=	c #241E26",
"s=	c #2B252D",
"t=	c #29222A",
"u=	c #342D34",
"v=	c #685E61",
"w=	c #D43528",
"x=	c #991B17",
"y=	c #3C2B30",
"z=	c #680609",
"A=	c #2F1E24",
"B=	c #332A2E",
"C=	c #AA160E",
"D=	c #FC3206",
"E=	c #291620",
"F=	c #5D5352",
"G=	c #55464C",
"H=	c #5A3F41",
"I=	c #FC3708",
"J=	c #681619",
"K=	c #531C21",
"L=	c #4D292A",
"M=	c #3A1E22",
"N=	c #361111",
"O=	c #282028",
"P=	c #5D5A61",
"Q=	c #5D565B",
"R=	c #5B3E41",
"S=	c #D11F0C",
"T=	c #490D10",
"U=	c #441521",
"V=	c #231B23",
"W=	c #2C262E",
"X=	c #2E282F",
"Y=	c #39353A",
"Z=	c #663D43",
"`=	c #AF2E2A",
" -	c #3C363B",
".-	c #1F080A",
"+-	c #2D1D22",
"@-	c #3F353D",
"#-	c #363035",
"$-	c #3A3539",
"%-	c #592629",
"&-	c #2C0F18",
"*-	c #594D4D",
"=-	c #412428",
"--	c #802C36",
";-	c #FF3E05",
">-	c #F92E04",
",-	c #450A16",
"'-	c #341A24",
")-	c #3F232E",
"!-	c #6F0E0E",
"~-	c #2D2028",
"{-	c #3F3940",
"]-	c #413E46",
"^-	c #625A5F",
"/-	c #624548",
"(-	c #3F3236",
"_-	c #9B0F0D",
":-	c #231921",
"<-	c #241C23",
"[-	c #2B252E",
"}-	c #332D35",
"|-	c #55565B",
"1-	c #665D5E",
"2-	c #C22922",
"3-	c #393238",
"4-	c #493D40",
"5-	c #241318",
"6-	c #2D2229",
"7-	c #322A30",
"8-	c #3D3E45",
"9-	c #4A4245",
"0-	c #C31B08",
"a-	c #5A484A",
"b-	c #FF410B",
"c-	c #FC2E03",
"d-	c #5C1F22",
"e-	c #531D22",
"f-	c #471C23",
"g-	c #4C191E",
"h-	c #413B41",
"i-	c #6D353B",
"j-	c #2F2329",
"k-	c #423E44",
"l-	c #55555B",
"m-	c #705F66",
"n-	c #954546",
"o-	c #503A3D",
"p-	c #F73305",
"q-	c #2A1C22",
"r-	c #301D25",
"s-	c #352228",
"t-	c #46494F",
"u-	c #696366",
"v-	c #685D5D",
"w-	c #A2332F",
"x-	c #A11715",
"y-	c #3F2227",
"z-	c #2A2126",
"A-	c #403940",
"B-	c #452327",
"C-	c #3B2F34",
"D-	c #423A3E",
"E-	c #484247",
"F-	c #4A3D44",
"G-	c #4D4850",
"H-	c #FF3505",
"I-	c #3F0F13",
"J-	c #402227",
"K-	c #402F33",
"L-	c #41363E",
"  . + @ # $ % & * = - ; > , ' ) ! ~ { ] ^ / ( _ : < [ } | 1 2 3 ",
"4 5 6 7 8 9 0 a b c d e f g h i j k l m n o p q r s t u v w x y ",
"z A B C D E F G H : I J K L M N O P Q R S T U V W X Y Z `  ...+.",
"@.#.$.%.&.*.=.-.I ;.>.,.'.).!.~.{.].^./.(._.:.<.s [.}.|.1.2.3.4.",
"5.6.7.8.9.0.a.b.c.d.e.f.g.;.h.i.j.k.l.m.n.o.p.q.r.s.t.|.u.v.w.x.",
"y.z.A.B.C.D.E.F.G.H.I.J.K.L.M.N.O.P.Q.R.S.T.U.V.W.X.Y.Z.`. +.+++",
"@+#+$+%+&+*+=+-+;+>+,+'+)+!+~+{+]+^+/+(+_+:+<+[+}+|+1+2+3+4+5+6+",
"7+8+9+0+a+b+c+d+e+f+g+h+i+j+k+l+m+n+o+p+q+r+s+t+u+v+w+x+y+z+A+B+",
"C+D+E+F+G+H+I+J+K+L+M+N+O+P+b.Q+R+S+T+U+V+W+X+Y+Z+`+ @.@+@@@#@$@",
"%@&@*@=@-@;@>@,@'@)@!@~@{@]@^@/@(@_@:@<@[@}@|@1@2@3@4@5@6@7@8@9@",
"0@a@b@c@d@e@f@g@h@i@j@k@l@m@n@o@p@q@r@s@t@u@v@w@x@y@z@A@B@C@D@E@",
"F@G@H@I@J@K@L@M@N@O@P@Q@R@S@T@U@V@W@X@Y@Z@`@ #P .#+#@###$#%#&#*#",
"=#-#;#>#,#'#)#!#~#{#]#^#/#(#_#:#<#[#}#|#1#2#3#4#5#6#7#8#9#0#a#b#",
"c#r@d#<@e#f#g#h#i#j#k#l#m#n#o#p#q#r#s#t#u#v#w#x#y#z#A#B#C#D#E#F#",
"G#H#I#J#K#L#M#N#O#P#Q#R#S#T#U#V#W#X#Y#Z#`# $.$+$@$#$$$%$&$*$=$-$",
";$>$,$'$+ )$!$~${$]$^$/$($_$:$<$[$}$|$1$2$m.3$4$5$6$7$8$9$0$a$b$",
"c$d$e$f$g$h$i$j$k$l$m$n$o$p$q$r$s$t$u$v$w$x$y$z$A$B$C$D$E$F$G$H$",
"I$J$K$L$M$N$O$P$Q$R$S$T$U$V$W$X$+#Y$Z$`$ %.%+%@%#%$%%%&%*%=%-%;%",
">%,%'%)%!%~%{%]%^%/%(%_%:%<%Y$[%}%|%1%2%3%4%5%6%7%8%9%0%a%b%c%d%",
"e%f%g%h%i%j%k%1 l%m%n%o%p%q%r%s%t%u%v%w%x%y%z%A%B%C%D%E%F%G%H%g%",
"I%J%K%L%M%N%O%P%Q%R%S%T%U%V%W%X%Y%o@Z%`% &.&+&@&#&$&%&&&*&=&-&;&",
">&,&'&)&!&~&{&]&^&/&a+(&_&:&<&[&}&|&1&2&3&4&5&6&7&8&9&0&a&b&c&d&",
"e&f&g&h&i&j&k&l&m&n&0#o&p&q&r&s&t&u&v&w&x&y&z&A&B&C&D&E&_+F&G&H&",
"I&J&K&L&M&N&O&P&Q&R&S&T&U&V&W&X&Y&Z&`& *.*+*@*#*$*%*&***u%/@=*-*",
";*>*,*'*)*!*~*{*]*^*/*(*_*:*<*[*}*|*1*2*3*4*5*6*7*8*9*0*a*b*c*d*",
"e*f*g*h*i*j*k*l*m*n*o*p*q*r*s*t*u*v*w*x*y*z*A*B*C*D*E*F*G*H*I*J*",
"K*L*M*N*O*P*Q*R*S*T*U*V*W*X*Y*Z*`* =.=+=@=#=$=%=&=*===-=;=>=,='=",
")=!=~={=]=^=/=9&(=_=:=<=[=}=|=1=2=3=4=5=6=7=8=9=0=a=b=c=d=e=f=g=",
"h=i=j=k=l=m=n=o=p=q=r=s=t=u=v=w=x=y=z=L&A=B=C=D=E=F=G=H=I=J=K=L=",
"M=N=O=k+P=Q=R=S=T=U=V=W=X=Y=Z=`= -|@.-+-@-#-$-%-&-*-=---;->-,-'-",
")-!-~-{-]-^-/-(-_-:-<-[-}-|-1-2-3-4-5-6-7-).8-9-0-a-b-c-d-e-f-g-",
"h-i-j-k-l-m-n-o-p-q-r-s-t-u-v-w-x-y-z-A-B-C-D-E-F-G-H-I-9+J-K-L-"};
