/* XPM */
static char * WE_xpm[] = {
"32 32 713 2",
"  	c #441D14",
". 	c #561E13",
"+ 	c #2A2322",
"@ 	c #322725",
"# 	c #2D2523",
"$ 	c #3B302F",
"% 	c #382E2C",
"& 	c #2C2221",
"* 	c #29211F",
"= 	c #332927",
"- 	c #311511",
"; 	c #292221",
"> 	c #692414",
", 	c #252222",
"' 	c #2A2628",
") 	c #622418",
"! 	c #322A28",
"~ 	c #372D2B",
"{ 	c #352B2A",
"] 	c #531F13",
"^ 	c #3B1B16",
"/ 	c #312928",
"( 	c #2D2524",
"_ 	c #2D2624",
": 	c #46130A",
"< 	c #302926",
"[ 	c #3D3431",
"} 	c #372F2C",
"| 	c #3D3330",
"1 	c #3A2E2C",
"2 	c #2D2221",
"3 	c #642618",
"4 	c #652819",
"5 	c #542216",
"6 	c #2C2525",
"7 	c #362D2B",
"8 	c #2E2523",
"9 	c #362C2B",
"0 	c #3C312F",
"a 	c #2B2321",
"b 	c #241D1C",
"c 	c #532217",
"d 	c #262426",
"e 	c #1D191A",
"f 	c #27211F",
"g 	c #3C3331",
"h 	c #2C1E1B",
"i 	c #2B1E1C",
"j 	c #69281B",
"k 	c #262021",
"l 	c #491B0F",
"m 	c #401B17",
"n 	c #302A28",
"o 	c #39302E",
"p 	c #352D2B",
"q 	c #302725",
"r 	c #1A1918",
"s 	c #1D1819",
"t 	c #3C3330",
"u 	c #3C3332",
"v 	c #2E2322",
"w 	c #291F1E",
"x 	c #692A1A",
"y 	c #2A2523",
"z 	c #332D2B",
"A 	c #2C2725",
"B 	c #221313",
"C 	c #392F2D",
"D 	c #5B2318",
"E 	c #D03413",
"F 	c #302929",
"G 	c #2F2A28",
"H 	c #403834",
"I 	c #292523",
"J 	c #1E1413",
"K 	c #5D2317",
"L 	c #342E2C",
"M 	c #37302E",
"N 	c #CD3B15",
"O 	c #352E2C",
"P 	c #272524",
"Q 	c #403734",
"R 	c #3D3332",
"S 	c #3A312F",
"T 	c #3C322F",
"U 	c #26201F",
"V 	c #622116",
"W 	c #1B1818",
"X 	c #1E1C1B",
"Y 	c #441A14",
"Z 	c #512016",
"` 	c #542217",
" .	c #332B29",
"..	c #403633",
"+.	c #39322F",
"@.	c #642315",
"#.	c #352C2A",
"$.	c #302726",
"%.	c #312826",
"&.	c #782B1B",
"*.	c #342C2B",
"=.	c #463B39",
"-.	c #302825",
";.	c #312927",
">.	c #501E15",
",.	c #312A2A",
"'.	c #722C18",
").	c #702A18",
"!.	c #2F2A29",
"~.	c #24201F",
"{.	c #362E2C",
"].	c #413734",
"^.	c #3F3533",
"/.	c #3B3130",
"(.	c #3B3230",
"_.	c #321715",
":.	c #461F1B",
"<.	c #4B2017",
"[.	c #542018",
"}.	c #572217",
"|.	c #2A2422",
"1.	c #342C2A",
"2.	c #392F2E",
"3.	c #3F3432",
"4.	c #433835",
"5.	c #2A2120",
"6.	c #9E2B19",
"7.	c #FB761C",
"8.	c #FFAB27",
"9.	c #352D2E",
"0.	c #48241E",
"a.	c #342B29",
"b.	c #382E2B",
"c.	c #2B2422",
"d.	c #401814",
"e.	c #4B1D15",
"f.	c #332E2C",
"g.	c #3F3634",
"h.	c #262120",
"i.	c #5B2015",
"j.	c #392F2C",
"k.	c #3F3532",
"l.	c #3D3331",
"m.	c #3C3231",
"n.	c #221D1E",
"o.	c #342B2B",
"p.	c #67271A",
"q.	c #2B2625",
"r.	c #231E1E",
"s.	c #302827",
"t.	c #372E2C",
"u.	c #3B302E",
"v.	c #433734",
"w.	c #413534",
"x.	c #3A2E2D",
"y.	c #2C221F",
"z.	c #2C2324",
"A.	c #423A39",
"B.	c #3F3635",
"C.	c #5B261A",
"D.	c #2E2623",
"E.	c #2B2220",
"F.	c #2C2322",
"G.	c #461711",
"H.	c #461A15",
"I.	c #3D3231",
"J.	c #2C2423",
"K.	c #632012",
"L.	c #271D1C",
"M.	c #2A1F1D",
"N.	c #322826",
"O.	c #2B1E1D",
"P.	c #431C14",
"Q.	c #2B2523",
"R.	c #261E1E",
"S.	c #462019",
"T.	c #362E2D",
"U.	c #322928",
"V.	c #461710",
"W.	c #362A27",
"X.	c #2C2421",
"Y.	c #3F3534",
"Z.	c #6A1C0E",
"`.	c #372F2D",
" +	c #352B29",
".+	c #642318",
"++	c #692518",
"@+	c #5B2117",
"#+	c #501D16",
"$+	c #312725",
"%+	c #3F1611",
"&+	c #2B2726",
"*+	c #40170E",
"=+	c #22201F",
"-+	c #541E14",
";+	c #5E2317",
">+	c #64281B",
",+	c #4A2018",
"'+	c #38302E",
")+	c #3E3331",
"!+	c #241F20",
"~+	c #322724",
"{+	c #2F2422",
"]+	c #2F2323",
"^+	c #451A12",
"/+	c #1E1C1C",
"(+	c #211315",
"_+	c #362C2A",
":+	c #6B2213",
"<+	c #231F1F",
"[+	c #2C2624",
"}+	c #221D1C",
"|+	c #2D2220",
"1+	c #312726",
"2+	c #271E1D",
"3+	c #2C1210",
"4+	c #2C2424",
"5+	c #552114",
"6+	c #201E1E",
"7+	c #65281B",
"8+	c #292421",
"9+	c #413634",
"0+	c #34130F",
"a+	c #201111",
"b+	c #271E1C",
"c+	c #271F1D",
"d+	c #201617",
"e+	c #241616",
"f+	c #302928",
"g+	c #4C1A14",
"h+	c #501610",
"i+	c #371C1B",
"j+	c #2A2627",
"k+	c #201D1D",
"l+	c #2E2624",
"m+	c #4B1810",
"n+	c #20191A",
"o+	c #281F1D",
"p+	c #261D1C",
"q+	c #401812",
"r+	c #371511",
"s+	c #2A2423",
"t+	c #2C2422",
"u+	c #6B2C1D",
"v+	c #6D291A",
"w+	c #2A2321",
"x+	c #342826",
"y+	c #2E2423",
"z+	c #231E1C",
"A+	c #2B2221",
"B+	c #1E1B1B",
"C+	c #BC290A",
"D+	c #382F2D",
"E+	c #251F1D",
"F+	c #2B2627",
"G+	c #352E2D",
"H+	c #5D251A",
"I+	c #511F14",
"J+	c #481E17",
"K+	c #732B1A",
"L+	c #391F1C",
"M+	c #2B2524",
"N+	c #262221",
"O+	c #211E1D",
"P+	c #481B14",
"Q+	c #302927",
"R+	c #382E2D",
"S+	c #3E3231",
"T+	c #262322",
"U+	c #67291C",
"V+	c #DE3F12",
"W+	c #291E1F",
"X+	c #2A211F",
"Y+	c #37120F",
"Z+	c #2E2727",
"`+	c #191517",
" @	c #332D2C",
".@	c #2D2623",
"+@	c #642617",
"@@	c #2F2B2A",
"#@	c #322D2C",
"$@	c #39312E",
"%@	c #38302D",
"&@	c #6A2315",
"*@	c #7F2915",
"=@	c #3A322F",
"-@	c #282321",
";@	c #2A1C19",
">@	c #362B29",
",@	c #41150F",
"'@	c #322A29",
")@	c #362E2B",
"!@	c #312B29",
"~@	c #FE5C07",
"{@	c #2D2423",
"]@	c #57150C",
"^@	c #BE2B09",
"/@	c #60130C",
"(@	c #211F20",
"_@	c #5C1F13",
":@	c #352D2C",
"<@	c #43201A",
"[@	c #322B28",
"}@	c #3A312E",
"|@	c #812D1B",
"1@	c #332B27",
"2@	c #551B11",
"3@	c #382C2A",
"4@	c #352927",
"5@	c #2A2020",
"6@	c #1C1413",
"7@	c #FB621D",
"8@	c #A52F19",
"9@	c #332A2B",
"0@	c #342D2C",
"a@	c #2F2826",
"b@	c #362D29",
"c@	c #2D2422",
"d@	c #372E2B",
"e@	c #382D2C",
"f@	c #2C2623",
"g@	c #D2350C",
"h@	c #6D2718",
"i@	c #282221",
"j@	c #403634",
"k@	c #3A302F",
"l@	c #322827",
"m@	c #282220",
"n@	c #682517",
"o@	c #2F2725",
"p@	c #261C1B",
"q@	c #772514",
"r@	c #2C2121",
"s@	c #4C1D15",
"t@	c #451913",
"u@	c #392E2C",
"v@	c #322B29",
"w@	c #9C301A",
"x@	c #3A2F2D",
"y@	c #3D3432",
"z@	c #372E2D",
"A@	c #2F2521",
"B@	c #6D2519",
"C@	c #2D2625",
"D@	c #AB1D08",
"E@	c #332C29",
"F@	c #261413",
"G@	c #3A302E",
"H@	c #28211F",
"I@	c #302B2A",
"J@	c #542118",
"K@	c #2E2A28",
"L@	c #2C2827",
"M@	c #6E2A19",
"N@	c #2C2627",
"O@	c #241E1B",
"P@	c #2A1816",
"Q@	c #832615",
"R@	c #7D2916",
"S@	c #3B322F",
"T@	c #3C3230",
"U@	c #3E3432",
"V@	c #403534",
"W@	c #331C1A",
"X@	c #5A2318",
"Y@	c #E53203",
"Z@	c #F64206",
"`@	c #F94411",
" #	c #B02F11",
".#	c #2F2625",
"+#	c #251A1A",
"@#	c #3E3431",
"##	c #322927",
"$#	c #2F2523",
"%#	c #672417",
"&#	c #38302C",
"*#	c #3B312E",
"=#	c #A93317",
"-#	c #E75015",
";#	c #352C2F",
">#	c #362D2F",
",#	c #C33119",
"'#	c #4E1E13",
")#	c #433836",
"!#	c #332827",
"~#	c #48160F",
"{#	c #332A28",
"]#	c #3F3737",
"^#	c #3E3634",
"/#	c #A32F14",
"(#	c #3E3532",
"_#	c #1F1818",
":#	c #231312",
"<#	c #342A29",
"[#	c #29201F",
"}#	c #6E2A1B",
"|#	c #472017",
"1#	c #541F13",
"2#	c #4C1B13",
"3#	c #312828",
"4#	c #64271B",
"5#	c #39312F",
"6#	c #403735",
"7#	c #211A19",
"8#	c #292220",
"9#	c #3D1A15",
"0#	c #2A1E1D",
"a#	c #2B1F1D",
"b#	c #322524",
"c#	c #39302D",
"d#	c #38312E",
"e#	c #81140A",
"f#	c #302624",
"g#	c #592015",
"h#	c #431812",
"i#	c #3F1918",
"j#	c #211C1F",
"k#	c #63281A",
"l#	c #292525",
"m#	c #282424",
"n#	c #6F291A",
"o#	c #792F1D",
"p#	c #6F2919",
"q#	c #413936",
"r#	c #453B3A",
"s#	c #27201E",
"t#	c #591D13",
"u#	c #47120A",
"v#	c #231A1C",
"w#	c #48170F",
"x#	c #2A2320",
"y#	c #731E11",
"z#	c #272224",
"A#	c #6E2012",
"B#	c #D76026",
"C#	c #5B2921",
"D#	c #61271A",
"E#	c #371C15",
"F#	c #433A37",
"G#	c #3A3230",
"H#	c #372E2E",
"I#	c #4C221A",
"J#	c #272222",
"K#	c #2C2523",
"L#	c #443A37",
"M#	c #2D2322",
"N#	c #36312D",
"O#	c #6A2314",
"P#	c #4B180F",
"Q#	c #211A1A",
"R#	c #702411",
"S#	c #342D2B",
"T#	c #622317",
"U#	c #2C2727",
"V#	c #292323",
"W#	c #413736",
"X#	c #423937",
"Y#	c #453A39",
"Z#	c #332B28",
"`#	c #1D1A1A",
" $	c #312827",
".$	c #1E1313",
"+$	c #2B201E",
"@$	c #291E1C",
"#$	c #2B2120",
"$$	c #1C1516",
"%$	c #282322",
"&$	c #3C3431",
"*$	c #4D1813",
"=$	c #242120",
"-$	c #272323",
";$	c #612518",
">$	c #352C2B",
",$	c #29201E",
"'$	c #201B1C",
")$	c #221B1B",
"!$	c #3E1812",
"~$	c #3F3433",
"{$	c #3E3332",
"]$	c #3A2F2E",
"^$	c #1D1918",
"/$	c #37160F",
"($	c #2B2121",
"_$	c #261817",
":$	c #381513",
"<$	c #301412",
"[$	c #423835",
"}$	c #413633",
"|$	c #37150F",
"1$	c #1F1817",
"2$	c #372D2C",
"3$	c #AD2E19",
"4$	c #383231",
"5$	c #262425",
"6$	c #742A19",
"7$	c #9F2B0C",
"8$	c #272324",
"9$	c #1F1D1D",
"0$	c #2C2220",
"a$	c #682015",
"b$	c #571C12",
"c$	c #27201F",
"d$	c #26201E",
"e$	c #201B1A",
"f$	c #1A1111",
"g$	c #2B1F1E",
"h$	c #281E1E",
"i$	c #772E1E",
"j$	c #AF492F",
"k$	c #3B3433",
"l$	c #7B321F",
"m$	c #722E1E",
"n$	c #582519",
"o$	c #38312F",
"p$	c #362F2D",
"q$	c #342A28",
"r$	c #231F1D",
"s$	c #381310",
"t$	c #251B1A",
"u$	c #2C201E",
"v$	c #2C211F",
"w$	c #201C1D",
"x$	c #F32D08",
"y$	c #762A1A",
"z$	c #261F1E",
"A$	c #282120",
"B$	c #4C1A11",
"C$	c #471A13",
"D$	c #5B2418",
"E$	c #51241A",
"F$	c #393230",
"G$	c #382F2E",
"H$	c #6E2B1B",
"I$	c #5A2419",
"J$	c #3D3230",
"K$	c #3B1712",
"L$	c #1B1A1A",
"M$	c #281F1E",
"N$	c #2A201F",
"O$	c #1E1314",
"P$	c #2C2625",
"Q$	c #831E0D",
"R$	c #372D2A",
"S$	c #231B1B",
"T$	c #261E1C",
"U$	c #5D2116",
"V$	c #312A29",
"W$	c #231817",
"X$	c #3B1C17",
"Y$	c #381B17",
"Z$	c #2D2321",
"`$	c #382D2B",
" %	c #352928",
".%	c #151213",
"+%	c #231917",
"@%	c #71291B",
"#%	c #662117",
"$%	c #362D2C",
"%%	c #2F2827",
"&%	c #6A2317",
"*%	c #2F2724",
"=%	c #352A28",
"-%	c #1D1919",
";%	c #612317",
">%	c #3E1D17",
",%	c #6B291A",
"'%	c #3A302D",
")%	c #5A170D",
"!%	c #2B201F",
"~%	c #342926",
"{%	c #2B1413",
"]%	c #2B1715",
"^%	c #6D281A",
"/%	c #2E2725",
"(%	c #411F19",
"_%	c #312724",
":%	c #302523",
"<%	c #312623",
"[%	c #231C1C",
"}%	c #64251A",
"|%	c #562318",
"1%	c #252121",
"2%	c #602618",
"3%	c #1F1E1E",
"4%	c #261818",
"5%	c #612417",
"6%	c #68281A",
"7%	c #1D1716",
"8%	c #672414",
"9%	c #4A1C15",
"0%	c #3B1914",
"a%	c #231B1A",
"b%	c #5C2217",
"c%	c #453A38",
"d%	c #6F2617",
"e%	c #2B2322",
"f%	c #29201D",
"g%	c #362928",
"h%	c #521D13",
"i%	c #3F1711",
"j%	c #541F16",
"k%	c #612419",
"l%	c #1C1615",
"m%	c #2E2927",
"n%	c #342E2B",
"o%	c #762C1A",
"p%	c #762E1B",
"q%	c #7C2E1B",
"r%	c #BD2E0E",
"s%	c #3E3633",
"t%	c #972716",
"u%	c #C52E0F",
"v%	c #332C2B",
"w%	c #302724",
"x%	c #732719",
"y%	c #28201F",
"z%	c #312624",
"A%	c #2F2423",
"B%	c #582114",
"C%	c #191717",
"D%	c #2E2625",
"E%	c #552116",
"F%	c #1F1C1C",
"G%	c #2E2829",
"H%	c #342C29",
"I%	c #5D2315",
"J%	c #702A1C",
"K%	c #742D1B",
"L%	c #37302D",
"M%	c #7C2D1A",
"N%	c #6A2A1E",
"O%	c #FC7D07",
"P%	c #781F15",
"Q%	c #3B312F",
"R%	c #281D1D",
"S%	c #332826",
"T%	c #2E2321",
"U%	c #7F2919",
"V%	c #332B2A",
"W%	c #682A1D",
"X%	c #471C12",
"Y%	c #413835",
"Z%	c #42201A",
"`%	c #511C13",
" &	c #2E2726",
".&	c #6F2C1C",
"+&	c #76311F",
"@&	c #292425",
"#&	c #2E1F1C",
"$&	c #251F1E",
"%&	c #2B1B1A",
"&&	c #402521",
"*&	c #201A19",
"=&	c #2C201F",
"-&	c #2B211F",
";&	c #58261B",
">&	c #2C2524",
",&	c #6B2A1A",
"'&	c #2C2526",
")&	c #3F3633",
"!&	c #312A28",
"~&	c #F37124",
"{&	c #302B29",
"]&	c #36302E",
"^&	c #2B2725",
"/&	c #5E2719",
"(&	c #322A2B",
"_&	c #63291B",
":&	c #2F2624",
"<&	c #392C2A",
"[&	c #372C2A",
"}&	c #3E1712",
"|&	c #261918",
"1&	c #372C2B",
"2&	c #322A27",
"3&	c #231D1D",
"4&	c #4A1912",
"5&	c #571F15",
"6&	c #602517",
"7&	c #332C2A",
"8&	c #242021",
"9&	c #622416",
"0&	c #2F2623",
"a&	c #342928",
"b&	c #571C14",
"c&	c #3E3533",
"d&	c #5F2719",
"e&	c #6A2C1C",
"f&	c #6A2A1C",
"g&	c #612517",
"h&	c #341815",
"i&	c #221A1C",
"j&	c #2E2422",
"k&	c #4B1E14",
"l&	c #2D2827",
"m&	c #902816",
"n&	c #2F2825",
"o&	c #2A2220",
"p&	c #4B1A0F",
"q&	c #231A17",
"r&	c #421813",
"s&	c #742818",
"t&	c #A13117",
"u&	c #582018",
"v&	c #551C13",
"w&	c #421710",
"x&	c #211A1B",
"y&	c #461B14",
"z&	c #1F1D1C",
"A&	c #C12D13",
"B&	c #2B1D1C",
"C&	c #413735",
"D&	c #251C1A",
"  . + @ # $ % & * = - ; > , ' ) ! ~ { ] ^ / ( _ : < [ } | 1 2 3 ",
"4 5 6 7 8 9 0 a b c d e f g h i j k l m n o p 9 q r s t u v w x ",
"y z A B ( C % D E F G H I J K L M N O 7 P Q R S T U V W X Y Z ` ",
" ...L +.@.#.$.%.&.*.#.=.-.;.>.,.'.).!.~.{.].^./.(._.:.<.[.}.|.1.",
"2.3.^.4.5.6.7.8.9.0.9 a.b.c.d.e.f.g.h.i.j.k.l.m.& n.o.p.q.r.s.t.",
"u.v.w.x.y.z.A.B.1.C.D.E.F.G.H./ (.I.J.K.L.M.N.O.P.Q.R.S.T.U.V.C ",
"W.X.Y.& L.Z.`.k. +< .+++@+#+c.~ a.a.$+%+&+*+=+-+;+>+,+'+k.)+!+8 ",
"~+{+]+w ^+/+(+ +_+ .:+<+[+}+F.|+1+= 2+3+4+5+D 6+y 7+8+4.9+C _ 0+",
"a+b+c+d+e+f+A g+h+i+j+k+ .l+m+n+o+p+q+r+s++.t+7+u+v+w+x+t+y+N.z+",
"A+s+B+C+z D+D+E+F+G+H+I+J+K+L+M+N+O+P+Q+R+S+R.T+U+V+W+X+x+= 1+Y+",
"$.Z+`+ @o S ! .@+@@@#@$@%@&@*@=@t+-@;@>@>@y+,@'@)@!@~@{@o+]@^@/@",
"(@_@)@1.D+$ :@<@[@}@l.(.p Q+|@`.}@1@2@3@4@5@6@#.g +.7@8@9@,.0@a@",
"b@c@d@e@2.f@g@h@i@T j@k@9 l@m@n@o@p@q@r@F.s@t@u@d@v@w@x@y@z@k@:@",
"A@B@!@C@v@D@E@q F@t.j@G@7 ~ H@I@J@K@{.L@M@N@q.O@P@Q@R@C@S@T@U@V@",
"W@X@Y@Z@`@ #D+_+.#+#$ @###$#%#%.)@&##.*#.@=#-#;#>#,#0@'#N.)#!#{+",
"~# .{#]#^#/#(#{# ._#:#= <#[#}#|#1#2#Q+7 3#4#5#6#Q a.7#8#9#0#a#b#",
"n.% c#$@d#e#M+f#.#g#A h#i#j#k#l#M g.m#n#o#p#q#r#:@D+a s#t#u#v#w#",
"x#b.% D+o@y#z#A#B#C#D#D F+E#1.F#g.G#H#I#J#K#L#9+y@M#5.q+N#{.1.k+",
"O#P#Q#{#R#L@S#T#d@D+c+U#V#C@W#k.X#Y###Z#`# $.$+$@$#$$$%$&$Y.R $.",
"*$v@'+f.=$-$;$}#a.>$,$'$)$!$~${$3.##]$x@g+^$/$($_$:$<$[$}$t )+ $",
"|$1$0 2$o@3$4$5$6$.@+ 7$8$9$_#,$0  +U@0$a$8$'$b$c$d$Z#@#3.l.3.%.",
"e$f$g$h$y+i$j$k$l$m$n$o$p$q$r$s$t$u$v$2 w$#.x$y$ .z$_+$ x@u@1+( ",
"A$# B$C$D$E$F$G$-$H$I$(#J$$.q K$L$M$N$O$P$C / Q$c.{ >@u@R$f#8 S$",
"a T$U$V$-@W$'+S % X$Y$Z$`$ % $.%$.+%@%#%p S $%%%&%*%N.= =%#$w -%",
"p a.;%f+>%,%o % '%[#s.)%!%~%{%w+]%/ ^%F.S 9+t./%s+(%_%:%{+<%[%$.",
"#.p }%|%1%2%3%4%5%6%#.7%8%9%0%3%P$a%b%T.2.c%I.2.D.d%e%f%g%|+h%1.",
"i%j%k%l%% m%n%{.o%p%q%r%=@s%o$-@t%u%v%7 I.9+G@x@N.w%x%y%z%A%B%C%",
"D%E%F%G%*#H%I%J%K%L%M%N%c#@#k@o O%P%Q%2$R%S%T% %v$A+U%V%l#W%6+z@",
"X%'+Y%Z%`% &.&+&@&%@#&$&y+'%Q%7 %&&&% S  &*&=&T%-&;&>&%@p G#,&'&",
"T Q%)&!&~&{&]&^&/&(&_&/ :&<&[&F.}&|&{@1&~ 2&3&4&5&6&7&U@z@C 8&9&",
"4@0&a&/ b&(.c&$%{.d&e&f&g&:%q h&Q.$&i&%.j&F.k&l&m&n&(.y@/.1.o&p&",
"q&0$0$r&'@D+Y.2$% o@!&S@s&t&u&v&{###Q.w&x&y&z&A&B&G@j@U@C&T & D&"};
